<?xml version="1.0" encoding="UTF-8"?>
<svg width="64px" height="63px" viewBox="0 0 64 63" version="1.1" xmlns="http://www.w3.org/2000/svg" xmlns:xlink="http://www.w3.org/1999/xlink">
    <title>O</title>
    <g id="Page-1" stroke="none" stroke-width="1" fill="none" fill-rule="evenodd">
        <g id="Artboard" transform="translate(-656.000000, -539.000000)" fill="#FFFFFF" fill-rule="nonzero">
            <path d="M682.760324,601.132812 C692.596019,601.132812 701.209569,597.371245 708.600976,589.84811 C715.992383,582.324975 719.688086,574.070017 719.688086,565.083237 C719.688086,557.501557 717.360891,551.281066 712.7065,546.421764 C708.052109,541.562463 701.553526,539.132812 693.210749,539.132812 C686.536528,539.132812 680.484357,540.808686 675.054234,544.160433 C669.624111,547.51218 665.09413,552.115343 661.46429,557.969923 C657.834451,563.824503 656.019531,569.19608 656.019531,574.084654 C656.019531,577.948677 656.458625,581.344333 657.336812,584.271623 C658.214999,587.198913 659.854281,590.023747 662.254659,592.746127 C664.655036,595.468507 667.560372,597.546882 670.970664,598.981254 C674.380957,600.415626 678.310844,601.132812 682.760324,601.132812 Z M681.969956,596.302784 C678.5743,596.302784 675.947057,595.161141 674.088228,592.877855 C672.229399,590.594569 671.299985,587.345277 671.299985,583.12998 C671.299985,575.021387 673.473497,566.459064 677.820523,557.443011 C682.167548,548.426958 687.56108,543.918931 694.001118,543.918931 C697.45532,543.918931 700.045971,545.031302 701.773072,547.256042 C703.500173,549.480782 704.363724,552.832529 704.363724,557.311283 C704.363724,565.15642 702.299985,573.616287 698.172506,582.690886 C694.045027,591.765485 688.644177,596.302784 681.969956,596.302784 Z" id="O"></path>
        </g>
    </g>
</svg>