<?xml version="1.0" encoding="UTF-8"?>
<svg width="61px" height="65px" viewBox="0 0 61 65" version="1.1" xmlns="http://www.w3.org/2000/svg" xmlns:xlink="http://www.w3.org/1999/xlink">
    <title>Combined Shape</title>
    <g id="Page-1" stroke="none" stroke-width="1" fill="none" fill-rule="evenodd">
        <g id="Artboard" transform="translate(-681.000000, -525.000000)" fill="#FFFFFF" fill-rule="nonzero">
            <path d="M711.260058,525.915039 C714.512322,525.915039 717.547792,526.279721 720.343711,526.986618 L720.939162,527.143326 L720.939162,527.143326 C718.028731,528.49538 715.998734,531.402311 715.998734,534.86024 C715.998734,539.654665 719.901173,543.389857 724.639849,543.389857 C729.434274,543.389857 733.336713,539.654665 733.336713,534.86024 L733.332979,534.603814 L733.332979,534.603814 L733.321847,534.349516 L733.321847,534.349516 C738.610819,539.864383 741.531835,547.901928 741.531835,557.915039 C741.531835,577.984725 730.159013,589.915039 711.260058,589.915039 C692.361104,589.915039 680.988281,577.928976 680.988281,557.915039 C680.988281,548.126355 683.79553,540.209169 688.888303,534.698586 L689.196608,534.370843 L689.196608,534.370843 C689.187981,534.53307 689.183403,534.696034 689.183403,534.86024 C689.183403,539.654665 693.085842,543.389857 697.824518,543.389857 C702.618943,543.389857 706.521382,539.654665 706.521382,534.86024 C706.521382,531.408096 704.498173,528.505109 701.575554,527.150212 C704.534697,526.336271 707.772747,525.915039 711.260058,525.915039 Z M711.260058,538.793088 C702.618943,538.793088 697.657271,545.873227 697.657271,557.915039 C697.657271,570.068349 702.563194,577.092739 711.260058,577.092739 C719.901173,577.092739 724.862846,570.068349 724.862846,557.915039 C724.862846,545.873227 719.845424,538.793088 711.260058,538.793088 Z M697.824518,526.330623 C699.044774,526.330623 700.207248,526.572582 701.262308,527.012381 L701.575554,527.150212 L701.575554,527.150212 C696.63205,528.508123 692.462769,530.959696 689.196608,534.370843 C689.451697,529.81434 693.248139,526.330623 697.824518,526.330623 Z M724.639849,526.330623 C729.262635,526.330623 733.056157,529.803164 733.321847,534.349516 C730.05499,530.941218 725.883651,528.49632 720.939162,527.143326 C722.062921,526.620875 723.318894,526.330623 724.639849,526.330623 Z" id="Combined-Shape"></path>
        </g>
    </g>
</svg>